Patient4_TMGait_0pt3_02_left_23_EMG.mot
version=1
nRows=20
nColumns=33
inDegrees=no
endheader
time	1LAddLong	2LGlutMax	3LGlutMed	4LIliopsoas	5LSemiMemb	6LBicFemLong	7LRecFem	8LVastMed	9LVastLat	10LGasMed	11LTibAnt	12lTibPost	13LPeroneusLong	14LSol	15LExtDigLong	16LFlexDigLong	17RAddLong	18RGlutMax	19RGlutMed	20RIliopsoas	21RSemiMemb	22RBicFemLong	23RRecFem	24RVastMed	25RVastLat	26RGasMed	27RTibAnt	28RTibPost	29RPeroneusLong	30RSol	31RExtDigLong	32RFlexDigLong
44.96	0.023651	-0.18555	-0.06073	-0.009918	0.023346	-0.11734	-0.009613	-0.006561	0.021667	0.045929	0.20874	0.008698	-0.065765	-0.20538	0.46509	0.008698	-0.001678	-0.043335	-0.20248	-0.039368	-0.1619	-0.004425	-0.16556	-0.001984	0.35294	-0.00946	0.032043	-0.024719	-0.059662	0.010681	-0.001221	-0.006714
44.961	0.001526	-0.22919	0.007782	-0.00351	0.019989	-0.10346	-0.017853	0.011902	0.015259	0.020752	0.15945	0.003204	-0.057526	-0.12222	0.38452	0.0177	-0.001526	-0.056	0.39307	-0.083466	-0.40436	0.070038	-0.26276	-0.18829	0.36285	0.009918	0.007629	-0.022125	0.336	-0.095978	0.002594	-0.005493
44.962	0.000153	-0.2092	-0.012817	-0.004883	0.018768	-0.083008	-0.018616	0.001831	0.007935	0.010376	0.14587	0.012207	-0.046844	0.017548	0.1294	0.005951	0.00946	-0.079041	0.34561	-0.021973	-0.44113	0.063477	-0.19959	-0.34317	0.17532	0.019379	-0.065765	-0.010223	0.79392	-0.006409	-0.001831	-0.00061
44.963	-0.000458	-0.215	0.007629	-0.014343	0.019531	-0.067902	-0.003052	0.013428	0.00412	0.016785	0.018463	0.002441	-0.007019	-0.044861	-0.009766	0.009003	0.038452	-0.14862	0.23956	-0.012512	-0.13351	0.1004	-0.088959	-0.4071	0.12009	0.031738	0.023041	-0.011139	0.10681	0.13077	-0.002441	0
44.964	0.000916	-0.19943	0.018768	-0.029907	0.01709	-0.06073	-0.018311	0.010071	0.00351	0.04303	0.065918	-0.002747	-0.026093	-0.024109	0.18066	-0.005188	0.054169	-0.014954	0.25024	0.028687	0.1358	0.15823	0.13473	-0.3241	0.12283	-0.030518	0.097351	-0.023499	0.59509	0.13748	-0.002594	-0.00061
44.965	0.000916	-0.19287	0.015411	-0.018005	0.020599	-0.091858	-0.02182	0.009308	0.016174	0.016174	0.084229	-0.016174	-0.037079	0.063171	0.1506	-0.005493	0.007019	0.070038	0.070648	0.11719	0.3479	0.075989	0.23041	-0.22369	-0.074921	-0.002899	-0.017395	-0.043793	1.0945	0.075226	-0.001678	-0.000458
44.966	0.012817	-0.168	0.02243	0.01358	0.029907	-0.09491	-0.027618	0.014343	0.031738	0.016785	0.042419	0.014954	-0.022583	0.090637	0.081482	-0.010376	-0.031281	0.10437	0.392	-0.003357	0.18799	-0.04303	0.14771	0.080261	-0.35812	0.022125	-0.11765	0.060425	1.2277	-0.24048	-0.002899	-0.009155
44.967	0.01236	-0.16647	0.029449	0.010529	0.02243	-0.10208	0.0177	0.004578	0.038757	0.021667	0.19501	0.018311	-0.034943	0.10773	0.37766	-0.007935	0.001221	0.098572	0.59815	-0.12421	0.1152	-0.10086	0.18921	0.054169	-0.49789	0.012054	-0.13733	0.030518	-0.30548	-0.22949	-0.00473	-0.009766
44.968	0.011444	-0.16785	0.010223	0.016937	0.02121	-0.095062	0.020447	0.005646	0.038605	-0.007172	0.15411	0.013275	0.012207	0.14114	-0.020599	0.008392	0.031891	0.025482	0.41229	-0.17227	-0.076599	-0.031586	0.18387	-0.090637	-0.15228	0.007935	-0.11368	-0.029602	0.054474	-0.013123	-0.002747	-0.015564
44.969	0.015869	-0.17807	0	0.004272	0.019226	-0.089417	0.045776	0.014343	0.037079	-0.003662	-0.18463	0.009613	0.039215	0.17944	0.14542	0.011292	-0.00061	0.004272	-0.088654	-0.079803	-0.03479	0.054321	-0.018463	-0.12177	0.11322	-0.013275	0.015106	-0.14069	-0.91522	0.092163	-0.003204	-0.012817
44.97	0.011139	-0.19424	0.005035	0.005646	0.02243	-0.088959	-0.013275	-0.001068	0.035553	0.002441	-0.12802	0.005951	-0.001678	0.14771	0.35355	0.009918	-0.050659	-0.034943	-0.015717	-0.023041	0.056915	0.045776	-0.15457	0.035858	0.2063	-0.016479	0.10361	-0.033264	-0.71579	0.045776	-0.003662	-0.007324
44.971	0.011749	-0.17838	0.034637	0.003357	0.018768	-0.10635	-0.005035	0.006256	0.032806	-0.023346	-0.073853	0.01236	0.035553	0.056763	0.24765	0.009308	-0.04303	0.019531	-0.52322	-0.007629	0.046234	0.075684	-0.091248	0.23148	0.33356	0.002441	0.034637	0.20691	0.1973	-0.18295	-0.000916	-0.006409
44.972	0.018768	-0.13794	0.031433	0.03952	0.019531	-0.096741	-0.038757	0.00412	0.02533	-0.053406	-0.092316	0.00824	0.11627	0.077515	-0.16846	0.009308	0.023499	0.10056	0.09079	-0.07843	-0.030518	0.1207	-0.17944	0.28061	0.34653	0.000916	0.07309	0.048523	-0.18707	0.042877	-0.001526	-0.008087
44.973	0.006104	-0.1387	-0.019684	0.055237	0.018768	-0.10101	-0.038605	0.005035	0.02243	-0.035706	-0.15717	0.015411	0.091095	0.079346	-0.031586	0.001068	0.044098	0.036621	-0.019989	0.011292	-0.10635	0.15976	-0.19775	0.19684	0.14786	0.018463	0.056305	0.007629	-0.56686	0.10437	-0.005341	-0.009918
44.974	0.015564	-0.2153	-0.035858	0.042725	0.019226	-0.10025	-0.046234	0.018616	0.0177	0.018311	-0.084076	0.011444	0.002441	0.058289	-0.17471	0.007477	0.02594	0.03479	-0.16739	0.10452	-0.13046	0.054169	-0.094757	0.099335	0.015564	0.061035	-0.042877	-0.01358	-0.63995	-0.006104	-0.001221	-0.001831
44.975	0.01709	-0.20752	-0.037079	0.00412	0.020752	-0.07309	-0.026245	0.002136	0.006866	0.029144	-0.093231	0.011139	-0.002136	-0.067444	-0.3952	0.003357	-0.008545	-0.001068	-0.21515	0.18265	-0.044098	0.014191	-0.020599	0.15808	0.02121	0.033112	0.003662	-0.010834	-1.6574	-0.12192	-0.005951	-0.001526
44.976	0.016174	-0.18738	0.065765	-0.02182	0.013123	-0.068054	-0.009155	0.017395	0.016632	0.014191	0.14374	0.008698	0.011292	-0.08606	-0.11429	0.003052	-0.073242	0.010223	0.63019	0.17792	0.005646	0.059204	0.028076	0.21316	0.030823	0.016785	-0.017395	-0.01709	0.10925	0.21149	-0.003662	-0.005798
44.977	0.013123	-0.18326	0.027924	-0.036011	0.016937	-0.079651	-0.004883	0.014954	0.033112	-0.007172	0.18875	0.005798	-0.001831	0.002289	-0.19562	0.001831	-0.057373	0.005341	0.21286	0.076294	0.027008	-0.10391	0.18463	-0.072327	0.021973	0.014954	-0.035095	-0.014954	0.80154	0.20172	-0.004425	-0.005798
44.978	0.007782	-0.25085	0.048065	-0.021362	0.023499	-0.088959	-0.028229	0.009155	0.031433	-0.023041	0.074768	0.014343	0.050964	0.091705	0.012054	0.005798	-0.019226	-0.04837	0.20691	-0.009766	0.065002	-0.31372	0.34409	-0.18814	0.010071	0.000458	0.14038	-0.019531	-0.045013	0.010681	-0.00061	-0.001526
44.979	0.010834	-0.25787	0.018005	0.006104	0.018616	-0.096893	-0.030823	0.016632	0.014801	-0.009766	-0.16586	0.010376	0.014191	0.065002	0.63278	-0.000153	0.001831	-0.046234	-0.055237	0.019684	0.072021	-0.22217	0.35645	-0.12665	-0.00473	0.014648	-0.004883	-0.011292	0.37979	-0.401	-0.008545	-0.00061
